<?xml version="1.0" standalone="no"?>
<!DOCTYPE svg PUBLIC "-//W3C//DTD SVG 20010904//EN"
 "http://www.w3.org/TR/2001/REC-SVG-20010904/DTD/svg10.dtd">
<svg version="1.0" xmlns="http://www.w3.org/2000/svg"
 width="16.000000pt" height="14.000000pt" viewBox="0 0 16.000000 14.000000"
 preserveAspectRatio="xMidYMid meet">

<g transform="translate(0.000000,14.000000) scale(0.100000,-0.100000)"
fill="#fff" stroke="none">
<path d="M68 133 c-9 -2 -15 -10 -12 -17 6 -17 -22 -41 -31 -26 -3 5 -11 10
-17 10 -6 0 -6 -6 2 -15 10 -12 10 -19 2 -27 -19 -19 -14 -32 6 -15 17 15 20
15 49 -12 l31 -29 31 32 c17 18 31 35 31 40 0 8 -62 67 -70 65 -3 -1 -13 -3
-22 -6z m72 -63 c0 -5 -4 -10 -10 -10 -5 0 -10 5 -10 10 0 6 5 10 10 10 6 0
10 -4 10 -10z"/>
</g>
</svg>
