<?xml version="1.0" standalone="no"?>
<!DOCTYPE svg PUBLIC "-//W3C//DTD SVG 20010904//EN"
 "http://www.w3.org/TR/2001/REC-SVG-20010904/DTD/svg10.dtd">
<svg version="1.0" xmlns="http://www.w3.org/2000/svg"
 width="512.000000pt" height="512.000000pt" viewBox="0 0 512.000000 512.000000"
 preserveAspectRatio="xMidYMid meet">

<g transform="translate(0.000000,512.000000) scale(0.100000,-0.100000)"
fill="#f52f4e" stroke="none">
<path d="M4263 4125 c-80 -22 -131 -52 -196 -113 -127 -122 -200 -268 -344
-687 -70 -205 -122 -327 -173 -400 -94 -137 -245 -276 -435 -402 -496 -328
-1318 -592 -2290 -738 -330 -49 -404 -73 -575 -188 -96 -65 -256 -221 -220
-214 14 3 60 12 103 21 101 21 302 21 399 1 40 -9 97 -27 127 -41 l53 -27 -6
-41 c-9 -59 -75 -188 -141 -276 -73 -96 -85 -121 -85 -167 0 -65 10 -68 291
-71 165 -2 261 0 290 8 59 16 141 100 243 250 43 63 80 117 82 119 2 2 45 -4
96 -13 188 -32 248 -37 493 -43 199 -4 281 -2 400 11 180 21 364 56 461 90
l72 24 31 -87 c57 -160 147 -285 237 -331 47 -24 58 -25 271 -28 145 -2 242 0
279 8 62 13 104 45 104 81 0 12 -24 85 -54 163 -67 173 -120 351 -140 471 -58
333 41 698 277 1027 81 112 215 265 293 334 l63 55 42 -46 c23 -25 69 -59 105
-76 54 -27 79 -33 157 -37 166 -8 298 39 399 146 105 110 143 217 142 402 -1
154 -22 240 -96 390 -47 94 -63 116 -158 210 -109 110 -181 157 -307 201 -77
27 -220 34 -290 14z m626 -553 c104 -52 105 -199 1 -252 -50 -26 -86 -25 -134
3 -101 58 -98 197 5 249 19 10 48 18 64 18 17 0 45 -8 64 -18z"/>
<path d="M1850 3915 c-228 -33 -480 -106 -653 -189 -329 -158 -574 -425 -671
-731 -36 -115 -46 -183 -46 -314 0 -129 18 -222 55 -288 13 -24 20 -43 16 -43
-18 0 -94 -76 -112 -113 -32 -61 -24 -153 17 -204 17 -21 46 -46 65 -55 215
-107 1025 41 1694 310 496 200 978 491 1080 653 80 126 67 287 -32 368 -38 31
-127 57 -164 48 -10 -3 -19 -1 -19 3 0 5 -27 48 -59 97 -158 236 -391 389
-681 448 -108 22 -373 28 -490 10z"/>
</g>
</svg>
